# xmcd
#
# Track frame offsets:
#	150
#	17196
#	31637
#	48136
#	62594
#	78291
#	96602
#	114521
#	131581
#	145857
#	160187
#	173964
#	185676
#	199582
#	213279
#	228121
#	245352
#	259769
#
# Disc length: 3641 seconds
#
# Revision: 1
# Processed by: cddbd v1.5.2PL0 Copyright (c) Steve Scherf et al.
# Submitted via: audiograbber 1.83.01
#
DISCID=ed0e3712
DTITLE=Various Artist - COUNTRY NOV 2015
DYEAR=2015
DGENRE=Country
TTITLE0=BRAD PAISLEY - COUNTRY NATION
TTITLE1=ASHLEY GEARING - TRAIN TRACK
TTITLE2=AARON WATSON - GETAWAY TRUCK
TTITLE3=ZAC BROWN BAND - BEAUTIFUL DRUG
TTITLE4=RASCAL FLATTS - I LIKE THE SOUND OF THAT
TTITLE5=ALABAMA - WASN'T THROUGH LOVIN YOU YET
TTITLE6=CARRIE UNDERWOOD - SMOKE BREAK
TTITLE7=BRANTLEY GILBERT - STONE COLD SOBER
TTITLE8=MICHAEL RAY - REAL MEN LOVE JESUS
TTITLE9=AMANDA WATKINS - IF I WAS OVER YOU
TTITLE10=MO PITNEY - BOY and A GIRL THING
TTITLE11=LEVI HART - MY KIND OF NIGHT
TTITLE12=DUSTIN LYNCH - MIND READER
TTITLE13=DALLAS SMITH - KIDS WITH CARS
TTITLE14=TOBY KEITH - RUM IS THE REASON
TTITLE15=SAM HUNT - BREAK UP IN A SMALL TOWN
TTITLE16=LAUREN ALAINA - NEXT BOYFRIEND
TTITLE17=JOE NICHOLS - FREAKS LIKE ME
EXTD=
EXTT0=
EXTT1=
EXTT2=
EXTT3=
EXTT4=
EXTT5=
EXTT6=
EXTT7=
EXTT8=
EXTT9=
EXTT10=
EXTT11=
EXTT12=
EXTT13=
EXTT14=
EXTT15=
EXTT16=
EXTT17=
PLAYORDER=
